# xmcd CD database file
#
# Track frame offsets:
#	150
#	38693
#	75144
#	100734
#	140224
#	177376
#	222913
#	249533
#
# Disc length: 3862 seconds
#
# Revision: 0
# Processed by: cddbd v1.5.2PL0 Copyright (c) Steve Scherf et al.
# Submitted via: CDex 1.51
#
DISCID=650f1408
DTITLE=Brad Mehldau Trio - Seymour Reads the Constitution!
DYEAR=2018
DGENRE=Jazz
TTITLE0=Spiral
TTITLE1=Seymour Reads the Constitution!
TTITLE2=Almost Like Being in Love
TTITLE3=De-Dah
TTITLE4=Friends
TTITLE5=Ten Tune
TTITLE6=Great Day
TTITLE7=Beatrice
EXTD=YEAR: 2018
EXTT0=
EXTT1=
EXTT2=
EXTT3=
EXTT4=
EXTT5=
EXTT6=
EXTT7=
PLAYORDER=
